<svg id="visual" viewBox="0 0 960 540" width="960" height="540"
    xmlns="http://www.w3.org/2000/svg"
    xmlns:xlink="http://www.w3.org/1999/xlink" version="1.1">
    <path d="M0 339L22.8 349.5C45.7 360 91.3 381 137 382.8C182.7 384.7 228.3 367.3 274 362.2C319.7 357 365.3 364 411.2 366C457 368 503 365 548.8 355.5C594.7 346 640.3 330 686 328.7C731.7 327.3 777.3 340.7 823 343.5C868.7 346.3 914.3 338.7 937.2 334.8L960 331L960 541L937.2 541C914.3 541 868.7 541 823 541C777.3 541 731.7 541 686 541C640.3 541 594.7 541 548.8 541C503 541 457 541 411.2 541C365.3 541 319.7 541 274 541C228.3 541 182.7 541 137 541C91.3 541 45.7 541 22.8 541L0 541Z" fill="#4581f6"></path>
    <path d="M0 404L22.8 405.8C45.7 407.7 91.3 411.3 137 409.5C182.7 407.7 228.3 400.3 274 393.7C319.7 387 365.3 381 411.2 377.5C457 374 503 373 548.8 372.8C594.7 372.7 640.3 373.3 686 381.7C731.7 390 777.3 406 823 409.7C868.7 413.3 914.3 404.7 937.2 400.3L960 396L960 541L937.2 541C914.3 541 868.7 541 823 541C777.3 541 731.7 541 686 541C640.3 541 594.7 541 548.8 541C503 541 457 541 411.2 541C365.3 541 319.7 541 274 541C228.3 541 182.7 541 137 541C91.3 541 45.7 541 22.8 541L0 541Z" fill="#3767cf"></path>
    <path d="M0 394L22.8 404.3C45.7 414.7 91.3 435.3 137 443C182.7 450.7 228.3 445.3 274 441.3C319.7 437.3 365.3 434.7 411.2 433.8C457 433 503 434 548.8 430.7C594.7 427.3 640.3 419.7 686 420.5C731.7 421.3 777.3 430.7 823 436.3C868.7 442 914.3 444 937.2 445L960 446L960 541L937.2 541C914.3 541 868.7 541 823 541C777.3 541 731.7 541 686 541C640.3 541 594.7 541 548.8 541C503 541 457 541 411.2 541C365.3 541 319.7 541 274 541C228.3 541 182.7 541 137 541C91.3 541 45.7 541 22.8 541L0 541Z" fill="#284faa"></path>
    <path d="M0 439L22.8 442.5C45.7 446 91.3 453 137 458.2C182.7 463.3 228.3 466.7 274 471C319.7 475.3 365.3 480.7 411.2 478.5C457 476.3 503 466.7 548.8 463.7C594.7 460.7 640.3 464.3 686 469.2C731.7 474 777.3 480 823 476.5C868.7 473 914.3 460 937.2 453.5L960 447L960 541L937.2 541C914.3 541 868.7 541 823 541C777.3 541 731.7 541 686 541C640.3 541 594.7 541 548.8 541C503 541 457 541 411.2 541C365.3 541 319.7 541 274 541C228.3 541 182.7 541 137 541C91.3 541 45.7 541 22.8 541L0 541Z" fill="#163887"></path>
    <path d="M0 492L22.8 489.2C45.7 486.3 91.3 480.7 137 482.2C182.7 483.7 228.3 492.3 274 494.2C319.7 496 365.3 491 411.2 489C457 487 503 488 548.8 487.3C594.7 486.7 640.3 484.3 686 483.5C731.7 482.7 777.3 483.3 823 483.7C868.7 484 914.3 484 937.2 484L960 484L960 541L937.2 541C914.3 541 868.7 541 823 541C777.3 541 731.7 541 686 541C640.3 541 594.7 541 548.8 541C503 541 457 541 411.2 541C365.3 541 319.7 541 274 541C228.3 541 182.7 541 137 541C91.3 541 45.7 541 22.8 541L0 541Z" fill="#002265"></path>
</svg>